<svg width="28" height="20" viewBox="0 0 28 20" fill="none" xmlns="http://www.w3.org/2000/svg">
<path d="M17.1285 20C16.8498 20 16.5712 19.8973 16.3512 19.6774C15.9259 19.2521 15.9259 18.5481 16.3512 18.1228L24.4759 9.99815L16.3512 1.87351C15.9259 1.44822 15.9259 0.744272 16.3512 0.318974C16.7765 -0.106325 17.4804 -0.106325 17.9057 0.318974L26.8077 9.22088C27.233 9.64618 27.233 10.3501 26.8077 10.7754L17.9057 19.6774C17.6858 19.8973 17.4071 20 17.1285 20Z" fill="#F5AD1C"/>
<path d="M25.7819 11.0978H1.09991C0.498626 11.0978 0 10.5991 0 9.99786C0 9.39658 0.498626 8.89795 1.09991 8.89795H25.7819C26.3832 8.89795 26.8818 9.39658 26.8818 9.99786C26.8818 10.5991 26.3832 11.0978 25.7819 11.0978Z" fill="#F5AD1C"/>
</svg>
