<svg width="50" height="51" viewBox="0 0 50 51" fill="none" xmlns="http://www.w3.org/2000/svg">
<g id="Icon footer/discord">
<path id="Vector" d="M41.0757 11.4087C38.2256 10.0528 35.1398 9.0687 31.9254 8.5001C31.8972 8.49918 31.8692 8.50458 31.8433 8.51591C31.8174 8.52725 31.7942 8.54425 31.7754 8.56571C31.3897 9.2874 30.9397 10.2278 30.6397 10.9495C27.2303 10.4246 23.7631 10.4246 20.3537 10.9495C20.0537 10.2059 19.6037 9.2874 19.1965 8.56571C19.1751 8.52197 19.1108 8.5001 19.0465 8.5001C15.8321 9.0687 12.7678 10.0528 9.89626 11.4087C9.87483 11.4087 9.8534 11.4306 9.83197 11.4525C4.00324 20.3532 2.39605 29.0135 3.18893 37.5862C3.18893 37.63 3.21036 37.6737 3.25322 37.6956C7.11046 40.5823 10.8177 42.3319 14.4821 43.4909C14.5464 43.5128 14.6107 43.4909 14.6321 43.4472C15.4893 42.2444 16.2607 40.976 16.925 39.6419C16.9679 39.5545 16.925 39.467 16.8393 39.4451C15.6178 38.964 14.4607 38.3954 13.3249 37.7393C13.2392 37.6956 13.2392 37.5644 13.3035 37.4988C13.5392 37.3238 13.7749 37.127 14.0107 36.952C14.0535 36.9083 14.1178 36.9083 14.1607 36.9302C21.5323 40.3636 29.4825 40.3636 36.7684 36.9302C36.8113 36.9083 36.8756 36.9083 36.9184 36.952C37.1541 37.1489 37.3899 37.3238 37.6256 37.5206C37.7113 37.5862 37.7113 37.7175 37.6042 37.7612C36.4898 38.4391 35.3112 38.9859 34.0898 39.467C34.0041 39.4889 33.9826 39.5982 34.0041 39.6638C34.6898 40.9978 35.4612 42.2663 36.297 43.4691C36.3613 43.4909 36.4256 43.5128 36.4898 43.4909C40.1757 42.3319 43.8829 40.5823 47.7401 37.6956C47.783 37.6737 47.8044 37.63 47.8044 37.5862C48.7473 27.6795 46.2401 19.0848 41.1614 11.4525C41.14 11.4306 41.1185 11.4087 41.0757 11.4087ZM18.0393 32.3595C15.8321 32.3595 13.9892 30.2819 13.9892 27.7232C13.9892 25.1645 15.7893 23.0869 18.0393 23.0869C20.3108 23.0869 22.1109 25.1864 22.0894 27.7232C22.0894 30.2819 20.2894 32.3595 18.0393 32.3595ZM32.9755 32.3595C30.7683 32.3595 28.9254 30.2819 28.9254 27.7232C28.9254 25.1645 30.7254 23.0869 32.9755 23.0869C35.247 23.0869 37.047 25.1864 37.0256 27.7232C37.0256 30.2819 35.247 32.3595 32.9755 32.3595Z" fill="white"/>
</g>
</svg>
