<svg width="91" height="87" viewBox="0 0 91 87" fill="none" xmlns="http://www.w3.org/2000/svg">
<path id="Ornament 45" d="M75.3967 38.3267L60.6337 52.7926L60.4467 52.9758L60.4907 53.2338L63.9752 73.6566L45.7336 64.0162L45.5 63.8927L45.2664 64.0162L27.0248 73.6566L30.5093 53.2338L30.5533 52.9758L30.3663 52.7926L15.6033 38.3267L36.0029 35.347L36.2634 35.3089L36.3794 35.0726L45.5 16.4954L54.6206 35.0726L54.7366 35.3089L54.9971 35.347L75.3967 38.3267ZM59.1114 28.859L59.2275 29.0953L59.488 29.1334L89.9295 33.58L67.9001 55.166L67.7131 55.3492L67.7571 55.6072L72.957 86.0838L45.7336 71.6966L45.5 71.5731L45.2664 71.6966L18.043 86.0838L23.2429 55.6072L23.2869 55.3492L23.0999 55.166L1.07051 33.58L31.512 29.1334L31.7725 29.0953L31.8885 28.859L45.5 1.13454L59.1114 28.859ZM79.2166 37.5512L79.9372 36.8451L78.9389 36.6993L56.1437 33.3696L45.9488 12.6043L45.5 11.6901L45.0512 12.6043L34.8563 33.3696L12.0611 36.6993L11.0628 36.8451L11.7834 37.5512L28.2798 53.7155L24.3854 76.5406L24.2147 77.5408L25.1119 77.0667L45.5 66.2918L65.8881 77.0667L66.7853 77.5408L66.6146 76.5406L62.7202 53.7155L79.2166 37.5512Z" fill="#F5AD1C" stroke="#F5AD1C"/>
</svg>
