<svg width="50" height="51" viewBox="0 0 50 51" fill="none" xmlns="http://www.w3.org/2000/svg">
<g id="Icon footer/instagram">
<path id="Vector" d="M26.9532 6.50234C28.3396 6.49702 29.7261 6.51095 31.1121 6.54414L31.4807 6.55744C31.9063 6.57264 32.3261 6.59163 32.8334 6.61443C34.8549 6.70943 36.2342 7.02862 37.4445 7.4979C38.6984 7.98049 39.7548 8.63406 40.8111 9.69043C41.777 10.6396 42.5245 11.7879 43.0017 13.0552C43.471 14.2655 43.7902 15.6467 43.8852 17.6683C43.908 18.1736 43.9269 18.5954 43.9422 19.021L43.9535 19.3896C43.9873 20.775 44.0019 22.1608 43.9972 23.5467L43.9991 24.964V27.4529C44.0038 28.8394 43.9893 30.2258 43.9554 31.6119L43.944 31.9805C43.9289 32.4061 43.9099 32.8259 43.8871 33.3332C43.7921 35.3548 43.4691 36.7341 43.0017 37.9444C42.5261 39.2131 41.7783 40.3622 40.8111 41.3111C39.8611 42.2768 38.7123 43.0243 37.4445 43.5017C36.2342 43.971 34.8549 44.2902 32.8334 44.3852C32.3261 44.4079 31.9063 44.4269 31.4807 44.4421L31.1121 44.4535C29.7261 44.4873 28.3396 44.5019 26.9532 44.4972L25.5359 44.4991H23.0489C21.6625 44.5038 20.2761 44.4893 18.89 44.4554L18.5215 44.444C18.0704 44.4277 17.6195 44.4087 17.1687 44.387C15.1472 44.2921 13.7679 43.9691 12.5558 43.5017C11.2879 43.0254 10.1395 42.2778 9.19103 41.3111C8.22407 40.3616 7.47585 39.2127 6.99855 37.9444C6.52927 36.7341 6.21009 35.3548 6.11509 33.3332C6.09393 32.8824 6.07493 32.4315 6.05809 31.9805L6.04859 31.6119C6.01357 30.2258 5.99773 28.8394 6.0011 27.4529V23.5467C5.99579 22.1608 6.00973 20.775 6.04289 19.3896L6.05619 19.021C6.07139 18.5954 6.09039 18.1736 6.11319 17.6683C6.20819 15.6448 6.52737 14.2674 6.99664 13.0552C7.47423 11.7872 8.22391 10.6393 9.19293 9.69233C10.1408 8.72479 11.2885 7.97588 12.5558 7.4979C13.7679 7.02862 15.1453 6.70943 17.1687 6.61443L18.5215 6.55744L18.89 6.54794C20.2754 6.51293 21.6612 6.49709 23.047 6.50044L26.9532 6.50234ZM25.0001 16.002C23.7414 15.9842 22.4918 16.2168 21.3238 16.6861C20.1557 17.1555 19.0927 17.8523 18.1963 18.7361C17.2999 19.6199 16.5881 20.6731 16.1023 21.8344C15.6165 22.9957 15.3663 24.2419 15.3663 25.5007C15.3663 26.7596 15.6165 28.0058 16.1023 29.1671C16.5881 30.3284 17.2999 31.3816 18.1963 32.2654C19.0927 33.1492 20.1557 33.846 21.3238 34.3154C22.4918 34.7847 23.7414 35.0173 25.0001 34.9995C27.5195 34.9995 29.9358 33.9986 31.7173 32.2171C33.4988 30.4355 34.4996 28.0193 34.4996 25.4998C34.4996 22.9803 33.4988 20.564 31.7173 18.7825C29.9358 17.001 27.5195 16.002 25.0001 16.002ZM25.0001 19.8019C25.7572 19.7879 26.5096 19.925 27.2131 20.2051C27.9167 20.4851 28.5574 20.9026 29.0978 21.4331C29.6382 21.9635 30.0675 22.5964 30.3606 23.2946C30.6537 23.9929 30.8047 24.7425 30.8048 25.4998C30.805 26.257 30.6542 27.0067 30.3613 27.7051C30.0685 28.4034 29.6394 29.0364 29.0991 29.5671C28.5589 30.0977 27.9183 30.5154 27.2149 30.7957C26.5114 31.076 25.7591 31.2133 25.002 31.1996C23.4904 31.1996 22.0406 30.5991 20.9717 29.5302C19.9028 28.4612 19.3023 27.0115 19.3023 25.4998C19.3023 23.9881 19.9028 22.5383 20.9717 21.4694C22.0406 20.4005 23.4904 19.8 25.002 19.8L25.0001 19.8019ZM34.9746 13.1521C34.3617 13.1766 33.782 13.4374 33.357 13.8797C32.9321 14.3221 32.6947 14.9117 32.6947 15.5251C32.6947 16.1386 32.9321 16.7282 33.357 17.1705C33.782 17.6129 34.3617 17.8736 34.9746 17.8981C35.6045 17.8981 36.2085 17.6479 36.6539 17.2026C37.0993 16.7572 37.3495 16.1531 37.3495 15.5232C37.3495 14.8934 37.0993 14.2893 36.6539 13.8439C36.2085 13.3985 35.6045 13.1483 34.9746 13.1483V13.1521Z" fill="white"/>
</g>
</svg>
