<svg width="166" height="39" viewBox="0 0 166 39" fill="none" xmlns="http://www.w3.org/2000/svg">
<path d="M37.039 36V30.4H39.463C39.9643 30.4 40.3963 30.4827 40.759 30.648C41.1217 30.808 41.4017 31.04 41.599 31.344C41.7963 31.648 41.895 32.0107 41.895 32.432C41.895 32.848 41.7963 33.208 41.599 33.512C41.4017 33.816 41.1217 34.0507 40.759 34.216C40.3963 34.376 39.9643 34.456 39.463 34.456H37.759L38.335 33.872V36H37.039ZM38.335 34.016L37.759 33.4H39.391C39.791 33.4 40.0897 33.3147 40.287 33.144C40.4843 32.9733 40.583 32.736 40.583 32.432C40.583 32.1227 40.4843 31.8827 40.287 31.712C40.0897 31.5413 39.791 31.456 39.391 31.456H37.759L38.335 30.84V34.016ZM41.803 36L44.299 30.4H45.579L48.083 36H46.723L44.675 31.056H45.187L43.131 36H41.803ZM43.051 34.8L43.395 33.816H46.275L46.627 34.8H43.051ZM50.504 36.096C50.056 36.096 49.6267 36.0373 49.216 35.92C48.8053 35.7973 48.4747 35.64 48.224 35.448L48.664 34.472C48.904 34.6427 49.1867 34.784 49.512 34.896C49.8427 35.0027 50.176 35.056 50.512 35.056C50.768 35.056 50.9733 35.032 51.128 34.984C51.288 34.9307 51.4053 34.8587 51.48 34.768C51.5547 34.6773 51.592 34.5733 51.592 34.456C51.592 34.3067 51.5333 34.1893 51.416 34.104C51.2987 34.0133 51.144 33.9413 50.952 33.888C50.76 33.8293 50.5467 33.776 50.312 33.728C50.0827 33.6747 49.8507 33.6107 49.616 33.536C49.3867 33.4613 49.176 33.3653 48.984 33.248C48.792 33.1307 48.6347 32.976 48.512 32.784C48.3947 32.592 48.336 32.3467 48.336 32.048C48.336 31.728 48.4213 31.4373 48.592 31.176C48.768 30.9093 49.0293 30.6987 49.376 30.544C49.728 30.384 50.168 30.304 50.696 30.304C51.048 30.304 51.3947 30.3467 51.736 30.432C52.0773 30.512 52.3787 30.6347 52.64 30.8L52.24 31.784C51.9787 31.6347 51.7173 31.5253 51.456 31.456C51.1947 31.3813 50.9387 31.344 50.688 31.344C50.4373 31.344 50.232 31.3733 50.072 31.432C49.912 31.4907 49.7973 31.568 49.728 31.664C49.6587 31.7547 49.624 31.8613 49.624 31.984C49.624 32.128 49.6827 32.2453 49.8 32.336C49.9173 32.4213 50.072 32.4907 50.264 32.544C50.456 32.5973 50.6667 32.6507 50.896 32.704C51.1307 32.7573 51.3627 32.8187 51.592 32.888C51.8267 32.9573 52.04 33.0507 52.232 33.168C52.424 33.2853 52.5787 33.44 52.696 33.632C52.8187 33.824 52.88 34.0667 52.88 34.36C52.88 34.6747 52.792 34.9627 52.616 35.224C52.44 35.4853 52.176 35.696 51.824 35.856C51.4773 36.016 51.0373 36.096 50.504 36.096ZM55.6056 36.096C55.1576 36.096 54.7282 36.0373 54.3176 35.92C53.9069 35.7973 53.5762 35.64 53.3256 35.448L53.7656 34.472C54.0056 34.6427 54.2882 34.784 54.6136 34.896C54.9442 35.0027 55.2776 35.056 55.6136 35.056C55.8696 35.056 56.0749 35.032 56.2296 34.984C56.3896 34.9307 56.5069 34.8587 56.5816 34.768C56.6562 34.6773 56.6936 34.5733 56.6936 34.456C56.6936 34.3067 56.6349 34.1893 56.5176 34.104C56.4002 34.0133 56.2456 33.9413 56.0536 33.888C55.8616 33.8293 55.6482 33.776 55.4136 33.728C55.1842 33.6747 54.9522 33.6107 54.7176 33.536C54.4882 33.4613 54.2776 33.3653 54.0856 33.248C53.8936 33.1307 53.7362 32.976 53.6136 32.784C53.4962 32.592 53.4376 32.3467 53.4376 32.048C53.4376 31.728 53.5229 31.4373 53.6936 31.176C53.8696 30.9093 54.1309 30.6987 54.4776 30.544C54.8296 30.384 55.2696 30.304 55.7976 30.304C56.1496 30.304 56.4962 30.3467 56.8376 30.432C57.1789 30.512 57.4802 30.6347 57.7416 30.8L57.3416 31.784C57.0802 31.6347 56.8189 31.5253 56.5576 31.456C56.2962 31.3813 56.0402 31.344 55.7896 31.344C55.5389 31.344 55.3336 31.3733 55.1736 31.432C55.0136 31.4907 54.8989 31.568 54.8296 31.664C54.7602 31.7547 54.7256 31.8613 54.7256 31.984C54.7256 32.128 54.7842 32.2453 54.9016 32.336C55.0189 32.4213 55.1736 32.4907 55.3656 32.544C55.5576 32.5973 55.7682 32.6507 55.9976 32.704C56.2322 32.7573 56.4642 32.8187 56.6936 32.888C56.9282 32.9573 57.1416 33.0507 57.3336 33.168C57.5256 33.2853 57.6802 33.44 57.7976 33.632C57.9202 33.824 57.9816 34.0667 57.9816 34.36C57.9816 34.6747 57.8936 34.9627 57.7176 35.224C57.5416 35.4853 57.2776 35.696 56.9256 35.856C56.5789 36.016 56.1389 36.096 55.6056 36.096ZM58.8671 36V30.4H60.1631V36H58.8671ZM64.2121 36.096C63.7695 36.096 63.3588 36.024 62.9801 35.88C62.6068 35.736 62.2815 35.5333 62.0041 35.272C61.7321 35.0107 61.5188 34.704 61.3641 34.352C61.2148 34 61.1401 33.616 61.1401 33.2C61.1401 32.784 61.2148 32.4 61.3641 32.048C61.5188 31.696 61.7348 31.3893 62.0121 31.128C62.2895 30.8667 62.6148 30.664 62.9881 30.52C63.3615 30.376 63.7668 30.304 64.2041 30.304C64.6468 30.304 65.0521 30.376 65.4201 30.52C65.7935 30.664 66.1161 30.8667 66.3881 31.128C66.6655 31.3893 66.8815 31.696 67.0361 32.048C67.1908 32.3947 67.2681 32.7787 67.2681 33.2C67.2681 33.616 67.1908 34.0027 67.0361 34.36C66.8815 34.712 66.6655 35.0187 66.3881 35.28C66.1161 35.536 65.7935 35.736 65.4201 35.88C65.0521 36.024 64.6495 36.096 64.2121 36.096ZM64.2041 34.992C64.4548 34.992 64.6841 34.9493 64.8921 34.864C65.1055 34.7787 65.2921 34.656 65.4521 34.496C65.6121 34.336 65.7348 34.1467 65.8201 33.928C65.9108 33.7093 65.9561 33.4667 65.9561 33.2C65.9561 32.9333 65.9108 32.6907 65.8201 32.472C65.7348 32.2533 65.6121 32.064 65.4521 31.904C65.2975 31.744 65.1135 31.6213 64.9001 31.536C64.6868 31.4507 64.4548 31.408 64.2041 31.408C63.9535 31.408 63.7215 31.4507 63.5081 31.536C63.3001 31.6213 63.1161 31.744 62.9561 31.904C62.7961 32.064 62.6708 32.2533 62.5801 32.472C62.4948 32.6907 62.4521 32.9333 62.4521 33.2C62.4521 33.4613 62.4948 33.704 62.5801 33.928C62.6708 34.1467 62.7935 34.336 62.9481 34.496C63.1081 34.656 63.2948 34.7787 63.5081 34.864C63.7215 34.9493 63.9535 34.992 64.2041 34.992ZM68.2421 36V30.4H69.3141L72.6181 34.432H72.0981V30.4H73.3781V36H72.3141L69.0021 31.968H69.5221V36H68.2421ZM78.1687 32.92H80.8567V33.96H78.1687V32.92ZM78.2647 36H76.9687V30.4H81.2007V31.44H78.2647V36ZM84.7434 36.096C84.3007 36.096 83.89 36.024 83.5114 35.88C83.138 35.736 82.8127 35.5333 82.5354 35.272C82.2634 35.0107 82.05 34.704 81.8954 34.352C81.746 34 81.6714 33.616 81.6714 33.2C81.6714 32.784 81.746 32.4 81.8954 32.048C82.05 31.696 82.266 31.3893 82.5434 31.128C82.8207 30.8667 83.146 30.664 83.5194 30.52C83.8927 30.376 84.298 30.304 84.7354 30.304C85.178 30.304 85.5834 30.376 85.9514 30.52C86.3247 30.664 86.6474 30.8667 86.9194 31.128C87.1967 31.3893 87.4127 31.696 87.5674 32.048C87.722 32.3947 87.7994 32.7787 87.7994 33.2C87.7994 33.616 87.722 34.0027 87.5674 34.36C87.4127 34.712 87.1967 35.0187 86.9194 35.28C86.6474 35.536 86.3247 35.736 85.9514 35.88C85.5834 36.024 85.1807 36.096 84.7434 36.096ZM84.7354 34.992C84.986 34.992 85.2154 34.9493 85.4234 34.864C85.6367 34.7787 85.8234 34.656 85.9834 34.496C86.1434 34.336 86.266 34.1467 86.3514 33.928C86.442 33.7093 86.4874 33.4667 86.4874 33.2C86.4874 32.9333 86.442 32.6907 86.3514 32.472C86.266 32.2533 86.1434 32.064 85.9834 31.904C85.8287 31.744 85.6447 31.6213 85.4314 31.536C85.218 31.4507 84.986 31.408 84.7354 31.408C84.4847 31.408 84.2527 31.4507 84.0394 31.536C83.8314 31.6213 83.6474 31.744 83.4874 31.904C83.3274 32.064 83.202 32.2533 83.1114 32.472C83.026 32.6907 82.9834 32.9333 82.9834 33.2C82.9834 33.4613 83.026 33.704 83.1114 33.928C83.202 34.1467 83.3247 34.336 83.4794 34.496C83.6394 34.656 83.826 34.7787 84.0394 34.864C84.2527 34.9493 84.4847 34.992 84.7354 34.992ZM88.7734 36V30.4H91.1974C91.6987 30.4 92.1307 30.4827 92.4934 30.648C92.856 30.808 93.136 31.04 93.3334 31.344C93.5307 31.648 93.6294 32.0107 93.6294 32.432C93.6294 32.848 93.5307 33.208 93.3334 33.512C93.136 33.8107 92.856 34.04 92.4934 34.2C92.1307 34.36 91.6987 34.44 91.1974 34.44H89.4934L90.0694 33.872V36H88.7734ZM92.3334 36L90.9334 33.968H92.3174L93.7334 36H92.3334ZM90.0694 34.016L89.4934 33.408H91.1254C91.5254 33.408 91.824 33.3227 92.0214 33.152C92.2187 32.976 92.3174 32.736 92.3174 32.432C92.3174 32.1227 92.2187 31.8827 92.0214 31.712C91.824 31.5413 91.5254 31.456 91.1254 31.456H89.4934L90.0694 30.84V34.016ZM99.6018 36.096C99.1698 36.096 98.7671 36.0267 98.3938 35.888C98.0258 35.744 97.7058 35.5413 97.4338 35.28C97.1618 35.0187 96.9485 34.712 96.7938 34.36C96.6445 34.008 96.5698 33.6213 96.5698 33.2C96.5698 32.7787 96.6445 32.392 96.7938 32.04C96.9485 31.688 97.1618 31.3813 97.4338 31.12C97.7111 30.8587 98.0338 30.6587 98.4018 30.52C98.7698 30.376 99.1725 30.304 99.6098 30.304C100.095 30.304 100.532 30.3893 100.922 30.56C101.316 30.7253 101.647 30.9707 101.914 31.296L101.082 32.064C100.89 31.8453 100.676 31.6827 100.442 31.576C100.207 31.464 99.9511 31.408 99.6738 31.408C99.4125 31.408 99.1725 31.4507 98.9538 31.536C98.7351 31.6213 98.5458 31.744 98.3858 31.904C98.2258 32.064 98.1005 32.2533 98.0098 32.472C97.9245 32.6907 97.8818 32.9333 97.8818 33.2C97.8818 33.4667 97.9245 33.7093 98.0098 33.928C98.1005 34.1467 98.2258 34.336 98.3858 34.496C98.5458 34.656 98.7351 34.7787 98.9538 34.864C99.1725 34.9493 99.4125 34.992 99.6738 34.992C99.9511 34.992 100.207 34.9387 100.442 34.832C100.676 34.72 100.89 34.552 101.082 34.328L101.914 35.096C101.647 35.4213 101.316 35.6693 100.922 35.84C100.532 36.0107 100.092 36.096 99.6018 36.096ZM105.392 36.096C104.949 36.096 104.538 36.024 104.16 35.88C103.786 35.736 103.461 35.5333 103.184 35.272C102.912 35.0107 102.698 34.704 102.544 34.352C102.394 34 102.32 33.616 102.32 33.2C102.32 32.784 102.394 32.4 102.544 32.048C102.698 31.696 102.914 31.3893 103.192 31.128C103.469 30.8667 103.794 30.664 104.168 30.52C104.541 30.376 104.946 30.304 105.384 30.304C105.826 30.304 106.232 30.376 106.6 30.52C106.973 30.664 107.296 30.8667 107.568 31.128C107.845 31.3893 108.061 31.696 108.216 32.048C108.37 32.3947 108.448 32.7787 108.448 33.2C108.448 33.616 108.37 34.0027 108.216 34.36C108.061 34.712 107.845 35.0187 107.568 35.28C107.296 35.536 106.973 35.736 106.6 35.88C106.232 36.024 105.829 36.096 105.392 36.096ZM105.384 34.992C105.634 34.992 105.864 34.9493 106.072 34.864C106.285 34.7787 106.472 34.656 106.632 34.496C106.792 34.336 106.914 34.1467 107 33.928C107.09 33.7093 107.136 33.4667 107.136 33.2C107.136 32.9333 107.09 32.6907 107 32.472C106.914 32.2533 106.792 32.064 106.632 31.904C106.477 31.744 106.293 31.6213 106.08 31.536C105.866 31.4507 105.634 31.408 105.384 31.408C105.133 31.408 104.901 31.4507 104.688 31.536C104.48 31.6213 104.296 31.744 104.136 31.904C103.976 32.064 103.85 32.2533 103.76 32.472C103.674 32.6907 103.632 32.9333 103.632 33.2C103.632 33.4613 103.674 33.704 103.76 33.928C103.85 34.1467 103.973 34.336 104.128 34.496C104.288 34.656 104.474 34.7787 104.688 34.864C104.901 34.9493 105.133 34.992 105.384 34.992ZM109.422 36V30.4H111.966C112.574 30.4 113.11 30.5173 113.574 30.752C114.038 30.9813 114.4 31.304 114.662 31.72C114.923 32.136 115.054 32.6293 115.054 33.2C115.054 33.7653 114.923 34.2587 114.662 34.68C114.4 35.096 114.038 35.4213 113.574 35.656C113.11 35.8853 112.574 36 111.966 36H109.422ZM110.718 34.936H111.902C112.275 34.936 112.598 34.8667 112.87 34.728C113.147 34.584 113.36 34.3813 113.51 34.12C113.664 33.8587 113.742 33.552 113.742 33.2C113.742 32.8427 113.664 32.536 113.51 32.28C113.36 32.0187 113.147 31.8187 112.87 31.68C112.598 31.536 112.275 31.464 111.902 31.464H110.718V34.936ZM116.031 36V30.4H117.327V36H116.031ZM118.656 36V30.4H119.728L123.032 34.432H122.512V30.4H123.792V36H122.728L119.416 31.968H119.936V36H118.656ZM127.821 36.096C127.378 36.096 126.97 36.0267 126.597 35.888C126.229 35.744 125.906 35.5413 125.629 35.28C125.357 35.0187 125.144 34.712 124.989 34.36C124.84 34.008 124.765 33.6213 124.765 33.2C124.765 32.7787 124.84 32.392 124.989 32.04C125.144 31.688 125.36 31.3813 125.637 31.12C125.914 30.8587 126.24 30.6587 126.613 30.52C126.986 30.376 127.397 30.304 127.845 30.304C128.341 30.304 128.786 30.3867 129.181 30.552C129.581 30.7173 129.917 30.9573 130.189 31.272L129.357 32.04C129.154 31.8267 128.933 31.6693 128.693 31.568C128.453 31.4613 128.192 31.408 127.909 31.408C127.637 31.408 127.389 31.4507 127.165 31.536C126.941 31.6213 126.746 31.744 126.581 31.904C126.421 32.064 126.296 32.2533 126.205 32.472C126.12 32.6907 126.077 32.9333 126.077 33.2C126.077 33.4613 126.12 33.7013 126.205 33.92C126.296 34.1387 126.421 34.3307 126.581 34.496C126.746 34.656 126.938 34.7787 127.157 34.864C127.381 34.9493 127.626 34.992 127.893 34.992C128.149 34.992 128.397 34.952 128.637 34.872C128.882 34.7867 129.12 34.6453 129.349 34.448L130.085 35.384C129.781 35.6133 129.426 35.7893 129.021 35.912C128.621 36.0347 128.221 36.096 127.821 36.096ZM128.901 35.216V33.112H130.085V35.384L128.901 35.216Z" fill="black"/>
<path d="M0 14.8866L30.2351 2V12.0677L11.6909 18.9137L30.2351 26.1624V35.8273L0 22.9407V14.8866Z" fill="#6764E9"/>
<path d="M165.235 15.0006L135 2V12.1567L153.544 19.0633L135 26.3762V36.1267L165.235 23.1261V15.0006Z" fill="#F5AD1C"/>
<path d="M37.3338 24V1.6H48.7898C51.7338 1.6 53.9311 2.144 55.3818 3.232C56.8324 4.29867 57.5578 5.70667 57.5578 7.456C57.5578 8.608 57.2484 9.62133 56.6298 10.496C56.0324 11.3493 55.1791 12.032 54.0698 12.544C52.9818 13.0347 51.6804 13.28 50.1658 13.28L50.8058 11.744C52.3844 11.744 53.7604 11.9893 54.9338 12.48C56.1071 12.9493 57.0138 13.6427 57.6538 14.56C58.3151 15.456 58.6458 16.5547 58.6458 17.856C58.6458 19.7973 57.8564 21.312 56.2778 22.4C54.7204 23.4667 52.4378 24 49.4298 24H37.3338ZM43.6058 19.424H48.9178C50.0058 19.424 50.8271 19.2427 51.3818 18.88C51.9578 18.496 52.2458 17.92 52.2458 17.152C52.2458 16.384 51.9578 15.8187 51.3818 15.456C50.8271 15.072 50.0058 14.88 48.9178 14.88H43.1578V10.496H47.9578C49.0244 10.496 49.8244 10.3147 50.3578 9.952C50.8911 9.58933 51.1578 9.04533 51.1578 8.32C51.1578 7.59467 50.8911 7.06133 50.3578 6.72C49.8244 6.35733 49.0244 6.176 47.9578 6.176H43.6058V19.424ZM61.9275 24V1.6H68.2635V18.976H78.9515V24H61.9275Z" fill="#6764E9"/>
<path d="M92.7548 24.448C90.9628 24.448 89.3094 24.16 87.7948 23.584C86.2801 23.008 84.9574 22.1973 83.8268 21.152C82.7174 20.0853 81.8534 18.848 81.2348 17.44C80.6161 16.032 80.3068 14.4853 80.3068 12.8C80.3068 11.1147 80.6161 9.568 81.2348 8.16C81.8534 6.752 82.7174 5.52533 83.8268 4.48C84.9574 3.41333 86.2801 2.592 87.7948 2.016C89.3094 1.44 90.9628 1.152 92.7548 1.152C94.5681 1.152 96.2214 1.44 97.7148 2.016C99.2294 2.592 100.541 3.41333 101.651 4.48C102.76 5.52533 103.624 6.752 104.243 8.16C104.883 9.568 105.203 11.1147 105.203 12.8C105.203 14.4853 104.883 16.0427 104.243 17.472C103.624 18.88 102.76 20.1067 101.651 21.152C100.541 22.1973 99.2294 23.008 97.7148 23.584C96.2214 24.16 94.5681 24.448 92.7548 24.448ZM92.7548 19.2C93.6081 19.2 94.3974 19.0507 95.1228 18.752C95.8694 18.4533 96.5094 18.0267 97.0428 17.472C97.5974 16.896 98.0241 16.2133 98.3228 15.424C98.6428 14.6347 98.8028 13.76 98.8028 12.8C98.8028 11.8187 98.6428 10.944 98.3228 10.176C98.0241 9.38667 97.5974 8.71467 97.0428 8.16C96.5094 7.584 95.8694 7.14667 95.1228 6.848C94.3974 6.54933 93.6081 6.4 92.7548 6.4C91.9014 6.4 91.1014 6.54933 90.3548 6.848C89.6294 7.14667 88.9894 7.584 88.4348 8.16C87.9014 8.71467 87.4748 9.38667 87.1548 10.176C86.8561 10.944 86.7068 11.8187 86.7068 12.8C86.7068 13.76 86.8561 14.6347 87.1548 15.424C87.4748 16.2133 87.9014 16.896 88.4348 17.472C88.9894 18.0267 89.6294 18.4533 90.3548 18.752C91.1014 19.0507 91.9014 19.2 92.7548 19.2ZM119.721 24.448C117.951 24.448 116.308 24.1707 114.793 23.616C113.279 23.04 111.967 22.2293 110.857 21.184C109.769 20.1387 108.916 18.912 108.297 17.504C107.679 16.0747 107.369 14.5067 107.369 12.8C107.369 11.0933 107.679 9.536 108.297 8.128C108.916 6.69867 109.78 5.46133 110.889 4.416C111.999 3.37067 113.311 2.57067 114.825 2.016C116.361 1.44 118.036 1.152 119.849 1.152C121.961 1.152 123.849 1.504 125.513 2.208C127.177 2.912 128.553 3.92533 129.641 5.248L125.609 8.896C124.841 8.064 124.009 7.44533 123.113 7.04C122.239 6.61333 121.257 6.4 120.169 6.4C119.209 6.4 118.335 6.54933 117.545 6.848C116.756 7.14667 116.084 7.584 115.529 8.16C114.975 8.71467 114.537 9.38667 114.217 10.176C113.919 10.944 113.769 11.8187 113.769 12.8C113.769 13.7387 113.919 14.6027 114.217 15.392C114.537 16.1813 114.975 16.864 115.529 17.44C116.084 17.9947 116.745 18.432 117.513 18.752C118.303 19.0507 119.167 19.2 120.105 19.2C121.044 19.2 121.961 19.0507 122.857 18.752C123.753 18.432 124.66 17.8987 125.577 17.152L129.129 21.6C127.849 22.5173 126.367 23.2213 124.681 23.712C122.996 24.2027 121.343 24.448 119.721 24.448ZM123.529 20.768V12.32H129.129V21.6L123.529 20.768Z" fill="#F5AD1C"/>
</svg>
