<svg width="50" height="51" viewBox="0 0 50 51" fill="none" xmlns="http://www.w3.org/2000/svg">
<g id="Icon footer/telegram">
<path id="Vector" fill-rule="evenodd" clip-rule="evenodd" d="M41.6495 7.73945C42.1659 7.52743 42.7311 7.45431 43.2863 7.52769C43.8415 7.60107 44.3664 7.81827 44.8064 8.15668C45.2463 8.4951 45.5852 8.94236 45.7879 9.45191C45.9905 9.96145 46.0494 10.5147 45.9584 11.054L41.219 39.0968C40.7593 41.8018 37.7167 43.3531 35.1736 42.0057C33.0463 40.8784 29.8867 39.1416 27.0448 37.3295C25.6238 36.4224 21.271 33.5176 21.8059 31.4506C22.2657 29.6833 29.5795 23.042 33.7589 19.0936C35.3993 17.5423 34.6512 16.6474 32.7141 18.0743C27.9015 21.6172 20.1802 27.0048 17.6266 28.5214C15.3739 29.8586 14.1995 30.0869 12.7952 29.8586C10.2333 29.4427 7.85731 28.7986 5.91809 28.0138C3.29763 26.9538 3.4251 23.4395 5.916 22.4162L41.6495 7.73945Z" fill="white"/>
</g>
</svg>
